<svg xmlns="http://www.w3.org/2000/svg" viewBox="0 0 512 512" role="img" aria-labelledby="title desc">
  <title id="title">MathLand exploration island</title>
  <desc id="desc">Moa the sea otter peeks over three colorful base-ten rods on a sunny island.</desc>
  <defs>
    <linearGradient id="sky" x1="0" y1="0" x2="0" y2="1">
      <stop offset="0" stop-color="#8ADBE8"/>
      <stop offset="1" stop-color="#45B8CB"/>
    </linearGradient>
    <linearGradient id="sand" x1="0" y1="0" x2="1" y2="1">
      <stop offset="0" stop-color="#FFE09A"/>
      <stop offset="1" stop-color="#F7B96B"/>
    </linearGradient>
  </defs>
  <rect width="512" height="512" rx="108" fill="url(#sky)"/>
  <circle cx="407" cy="104" r="48" fill="#FFD85A"/>
  <path d="M0 337c79-38 133-21 194 4 74 30 135 29 318-31v202H0z" fill="#238EA8" opacity=".78"/>
  <ellipse cx="256" cy="377" rx="194" ry="88" fill="url(#sand)" stroke="#173F59" stroke-width="12"/>
  <g stroke="#173F59" stroke-width="9" stroke-linejoin="round">
    <rect x="120" y="247" width="62" height="172" rx="18" fill="#FF7D6E"/>
    <rect x="225" y="221" width="62" height="198" rx="18" fill="#63D2A4"/>
    <rect x="330" y="260" width="62" height="159" rx="18" fill="#FFD45E"/>
    <path d="M120 282h62M120 317h62M120 352h62M120 387h62M225 256h62M225 291h62M225 326h62M225 361h62M330 295h62M330 330h62M330 365h62" fill="none" opacity=".56"/>
  </g>
  <g stroke="#173F59" stroke-width="11" stroke-linejoin="round">
    <circle cx="202" cy="193" r="42" fill="#8B583F"/>
    <circle cx="310" cy="193" r="42" fill="#8B583F"/>
    <ellipse cx="256" cy="202" rx="100" ry="91" fill="#9B6245"/>
    <ellipse cx="256" cy="228" rx="64" ry="49" fill="#FFE5BB"/>
    <circle cx="221" cy="188" r="10" fill="#173F59" stroke="none"/>
    <circle cx="291" cy="188" r="10" fill="#173F59" stroke="none"/>
    <path d="M242 218l14-10 14 10-14 13z" fill="#173F59"/>
    <path d="M232 246c14 13 34 13 48 0" fill="none" stroke-linecap="round"/>
  </g>
  <path d="M174 158c20-58 145-66 168 1-27-15-50-20-85-20-34 0-58 5-83 19z" fill="#315875" stroke="#173F59" stroke-width="10" stroke-linejoin="round"/>
  <path d="M209 129l49-37 48 38z" fill="#FF7D6E" stroke="#173F59" stroke-width="10" stroke-linejoin="round"/>
</svg>
