<svg xmlns="http://www.w3.org/2000/svg" viewBox="0 0 512 512" role="img" aria-labelledby="title desc">
  <title id="title">MathLand exploration island</title>
  <desc id="desc">A friendly explorer silhouette rises behind three colorful base-ten rods.</desc>
  <rect width="512" height="512" rx="108" fill="#76C8F0"/>
  <circle cx="407" cy="104" r="48" fill="#F6C453" stroke="#23415A" stroke-width="12"/>
  <path d="M0 337c79-38 133-21 194 4 74 30 135 29 318-31v202H0z" fill="#66D3B5"/>
  <ellipse cx="256" cy="377" rx="194" ry="88" fill="#F4D9A4" stroke="#23415A" stroke-width="12"/>
  <g stroke="#23415A" stroke-width="9" stroke-linejoin="round">
    <rect x="120" y="247" width="62" height="172" rx="18" fill="#FF8A7A"/>
    <rect x="225" y="221" width="62" height="198" rx="18" fill="#66D3B5"/>
    <rect x="330" y="260" width="62" height="159" rx="18" fill="#F6C453"/>
    <path d="M120 282h62M120 317h62M120 352h62M120 387h62M225 256h62M225 291h62M225 326h62M225 361h62M330 295h62M330 330h62M330 365h62" fill="none"/>
  </g>
  <g stroke="#23415A" stroke-width="11" stroke-linejoin="round">
    <circle cx="202" cy="193" r="42" fill="#FF8A7A"/>
    <circle cx="310" cy="193" r="42" fill="#FF8A7A"/>
    <ellipse cx="256" cy="202" rx="100" ry="91" fill="#F4D9A4"/>
    <ellipse cx="256" cy="228" rx="64" ry="49" fill="#FFF8E8"/>
    <circle cx="221" cy="188" r="10" fill="#23415A" stroke="none"/>
    <circle cx="291" cy="188" r="10" fill="#23415A" stroke="none"/>
    <path d="M242 218l14-10 14 10-14 13z" fill="#23415A"/>
    <path d="M232 246c14 13 34 13 48 0" fill="none" stroke-linecap="round"/>
  </g>
  <path d="M174 158c20-58 145-66 168 1-27-15-50-20-85-20-34 0-58 5-83 19z" fill="#23415A" stroke="#23415A" stroke-width="10" stroke-linejoin="round"/>
  <path d="M209 129l49-37 48 38z" fill="#FF8A7A" stroke="#23415A" stroke-width="10" stroke-linejoin="round"/>
</svg>
