<svg xmlns="http://www.w3.org/2000/svg" viewBox="0 0 128 128" role="img" aria-labelledby="title desc">
  <title id="title">Base-ten blocks</title>
  <desc id="desc">A hundred flat, one ten rod, and two unit cubes show place value.</desc>
  <rect id="hundred-flat-outline" x="8" y="24" width="72" height="72" rx="4" fill="#76C8F0" stroke="#23415A" stroke-width="8"/>
  <line class="hundred-column-divider" x1="15.2" y1="24" x2="15.2" y2="96" stroke="#23415A" stroke-width="1.5"/>
  <line class="hundred-column-divider" x1="22.4" y1="24" x2="22.4" y2="96" stroke="#23415A" stroke-width="1.5"/>
  <line class="hundred-column-divider" x1="29.6" y1="24" x2="29.6" y2="96" stroke="#23415A" stroke-width="1.5"/>
  <line class="hundred-column-divider" x1="36.8" y1="24" x2="36.8" y2="96" stroke="#23415A" stroke-width="1.5"/>
  <line class="hundred-column-divider" x1="44" y1="24" x2="44" y2="96" stroke="#23415A" stroke-width="1.5"/>
  <line class="hundred-column-divider" x1="51.2" y1="24" x2="51.2" y2="96" stroke="#23415A" stroke-width="1.5"/>
  <line class="hundred-column-divider" x1="58.4" y1="24" x2="58.4" y2="96" stroke="#23415A" stroke-width="1.5"/>
  <line class="hundred-column-divider" x1="65.6" y1="24" x2="65.6" y2="96" stroke="#23415A" stroke-width="1.5"/>
  <line class="hundred-column-divider" x1="72.8" y1="24" x2="72.8" y2="96" stroke="#23415A" stroke-width="1.5"/>
  <line class="hundred-row-divider" x1="8" y1="31.2" x2="80" y2="31.2" stroke="#23415A" stroke-width="1.5"/>
  <line class="hundred-row-divider" x1="8" y1="38.4" x2="80" y2="38.4" stroke="#23415A" stroke-width="1.5"/>
  <line class="hundred-row-divider" x1="8" y1="45.6" x2="80" y2="45.6" stroke="#23415A" stroke-width="1.5"/>
  <line class="hundred-row-divider" x1="8" y1="52.8" x2="80" y2="52.8" stroke="#23415A" stroke-width="1.5"/>
  <line class="hundred-row-divider" x1="8" y1="60" x2="80" y2="60" stroke="#23415A" stroke-width="1.5"/>
  <line class="hundred-row-divider" x1="8" y1="67.2" x2="80" y2="67.2" stroke="#23415A" stroke-width="1.5"/>
  <line class="hundred-row-divider" x1="8" y1="74.4" x2="80" y2="74.4" stroke="#23415A" stroke-width="1.5"/>
  <line class="hundred-row-divider" x1="8" y1="81.6" x2="80" y2="81.6" stroke="#23415A" stroke-width="1.5"/>
  <line class="hundred-row-divider" x1="8" y1="88.8" x2="80" y2="88.8" stroke="#23415A" stroke-width="1.5"/>
  <rect id="ten-rod-outline" x="88" y="24" width="16" height="72" rx="3" fill="#F6C453" stroke="#23415A" stroke-width="6"/>
  <line class="ten-rod-divider" x1="88" y1="31.2" x2="104" y2="31.2" stroke="#23415A" stroke-width="1.5"/>
  <line class="ten-rod-divider" x1="88" y1="38.4" x2="104" y2="38.4" stroke="#23415A" stroke-width="1.5"/>
  <line class="ten-rod-divider" x1="88" y1="45.6" x2="104" y2="45.6" stroke="#23415A" stroke-width="1.5"/>
  <line class="ten-rod-divider" x1="88" y1="52.8" x2="104" y2="52.8" stroke="#23415A" stroke-width="1.5"/>
  <line class="ten-rod-divider" x1="88" y1="60" x2="104" y2="60" stroke="#23415A" stroke-width="1.5"/>
  <line class="ten-rod-divider" x1="88" y1="67.2" x2="104" y2="67.2" stroke="#23415A" stroke-width="1.5"/>
  <line class="ten-rod-divider" x1="88" y1="74.4" x2="104" y2="74.4" stroke="#23415A" stroke-width="1.5"/>
  <line class="ten-rod-divider" x1="88" y1="81.6" x2="104" y2="81.6" stroke="#23415A" stroke-width="1.5"/>
  <line class="ten-rod-divider" x1="88" y1="88.8" x2="104" y2="88.8" stroke="#23415A" stroke-width="1.5"/>
  <rect class="unit-cube" x="108" y="56" width="14" height="14" rx="3" fill="#FF8A7A" stroke="#23415A" stroke-width="4"/>
  <rect class="unit-cube" x="108" y="82" width="14" height="14" rx="3" fill="#FF8A7A" stroke="#23415A" stroke-width="4"/>
</svg>
